<?xml version="1.0" encoding="utf-8"?>
<!-- Generator: Adobe Illustrator 19.2.1, SVG Export Plug-In . SVG Version: 6.00 Build 0)  -->
<svg version="1.1" id="Layer_1" xmlns="http://www.w3.org/2000/svg" xmlns:xlink="http://www.w3.org/1999/xlink" x="0px" y="0px"
	 viewBox="0 0 1023 281.7" style="enable-background:new 0 0 1023 281.7;" xml:space="preserve">
<g>
	<path d="M339.7,129.1c-0.7-9.2-1.2-17.4-1.9-25.5c-0.9-9.5-3.1-18.7-1.2-28.7c1.4-7.4-1.5-15.8-3.1-23.7c-1-4.9-3.9-9.4-4.9-14.3
		c-2.7-12.7,1-24.8,17.2-28.3c10.2-2.2,20.6,4.2,23.5,13.8c1.8,6.1-2.3,10.6-3.9,15.8c-1.2,4-2.7,8-3.4,12.1
		c-0.6,3.6-0.3,7.3-0.1,11c0.8,16-1.1,31.6-5.4,47c-1.1,3.9-1.1,8.1-1.6,12.2c-0.1,1,0.2,2.1-0.1,3c-4.6,13.9,4.5,20,14.5,25.9
		c5.1,3,9.6,4.5,15.3,0.6c5.4-3.6,11.9-5.6,17.7-8.7c1.3-0.7,2.6-2.8,2.7-4.4c1.2-18.1-1.3-35.9-5.3-53.5c-0.9-4.2-1.4-8.5-1.6-12.7
		c-0.3-6.2,0.3-12.4-0.2-18.6c-0.3-4.5-0.9-9.4-3-13.2c-4-7.4,0.1-23.1,8-26.8c13-6.2,24.9-5.2,31.6,9.2c3,6.3-1.6,11.5-3.4,17.2
		c-1.2,3.8-2.8,7.6-3.3,11.6c-0.6,4.4-0.3,9-0.1,13.5c0.5,14.8-1.3,29.2-5.2,43.5c-1.4,5.2-1.6,10.6-2.5,17.2c2.7-1,4.3-1.9,5.9-2
		c1.2-0.1,2.6,0.6,3.6,1.4c0.4,0.3-0.1,1.9-0.5,2.8c-0.6,1.2-1.2,2.5-2.2,3.2c-8.7,5.6-7.5,14.6-8.2,23c-1,12.5-2.2,25-2.9,37.5
		c-0.3,6.1,0.6,12.2,0.7,18.3c0,4.1-0.7,8.2-0.8,12.3c-0.4,16.1-0.7,32.2-1.1,48.3c-0.1,3.3-0.8,6.5-1.4,10.6
		c-1.1-13.1-2.2-25.4-3.3-37.6c-1.8-20.2-4.9-40.3-4.1-60.8c0.4-9.2-0.9-18.4-1.4-28.6c-1.9,1.3-3.5,2-4.6,3.2
		c-5.8,5.7-11.5,11.6-17.4,17.3c-5,4.9-7.2,5-12.5,0.7c-4.8-3.8-9.5-7.6-14.4-11.3c-0.8-0.6-2-0.8-2.8-1.2
		c-2.2,27.8-4.3,55.2-6.4,82.6c-0.5,0-0.9,0-1.4,0c-0.6-5.4-1-10.9-2-16.3c-3.1-17.9-3.2-35.9-3-53.9c0.1-8.6-0.9-17.2-0.8-25.8
		c0-5.5-2.6-8.8-6.6-11.8c-3.2-2.3-6.4-4.6-9.3-7.2c-0.9-0.8-0.9-2.6-1.3-4c1.4-0.4,3.1-1.4,4.2-1
		C330.4,125.1,334.3,126.9,339.7,129.1z"/>
	<path d="M997.6,119.7c-1.9,1.2-3.5,1.9-4.6,3c-7.2,6.8-14.5,13.5-21.4,20.5c-8.2,8.2-16.1,16.6-24,25.1c-3.8,4.1-6.2,4.3-10.6,1.4
		c-4.9-3.2-7.1-7.1-6.8-13.3c0.8-17.3,0.8-34.5,1.2-51.8c0.3-11.4,0.5-22.9,1-34.3c0.5-11.2,1.2-22.4,2-33.7
		c0.2-3.4,4.6-5.4,9.4-4.9c4.4,0.5,8.9,0.5,13.3,0.8c1.8,0.1,3.6-0.1,5.3,0.2c6.9,1.2,13.9,2.6,20.8,3.8c1.1,0.2,2.3,0.1,3.5,0
		c5.4-0.7,8.9,0.9,10.7,6c1.6,4.6,3.3,9.5,3.2,14.2c0,3.1-2.5,6.8-4.9,9.2c-4,3.9-8.7,7-13.3,10.2c-1,0.7-2.8,0.9-4.1,0.6
		c-8.1-1.6-16.2-3.5-24.9-5.4c-1.2,20.4-2.4,39.6-3.6,59.3c1.5-0.4,2.7-0.3,3.2-0.9c7.1-7.2,14.2-14.5,21.2-21.8
		c5.5-5.7,11-11.5,16.3-17.4c0.8-0.9,1.4-2.2,1.6-3.4c1.2-6.1,7.4-11.3,13.8-11.4c4.4-0.1,11.3,6.1,11.5,11.3
		c0.1,3.1-1.7,6.2-2.6,9.3c-0.8,3-1.8,6-2,9c-0.5,9.4-0.4,18.9-1.2,28.3c-0.5,5.8-2.2,11.6-2.9,17.4c-0.9,7.5-1.5,15.1-1.9,22.7
		c-1,17.5-1.7,35-2.6,52.4c-8-4.7-22.3-2.5-27.7,5.6c-2.6,3.8-2.8,9.3-3.6,14.1c-0.9,5.3-1.4,10.7-2.7,16.3
		c-4.3-16.4-5.5-33.1-14.7-48.5c-8.8-14.8-19.1-28-30.9-40.3c0.1-0.5,0.2-1.1,0.4-1.6c1.7-0.1,4.3-1,5.1-0.1
		c9.1,8.9,18.1,17.9,26.6,27.4c2.8,3.1,4.3,7.3,6.2,11.2c1.5,3,3.7,3.2,6.1,1.8c7.5-4.7,15.9-6,24.5-6.3c3.8-0.1,5.7-1.1,5.6-5.4
		c-0.5-17.9-0.6-35.9-1.2-53.8c-0.1-4.4-1.6-8.8-1.7-13.2C996.2,129,997.1,124.8,997.6,119.7z"/>
	<path d="M176.6,149.3c-0.5-10.3-1-20.8-1.5-31.4c0-0.3,0-0.7-0.2-1c-6.6-12.4-4.3-25.8-4.9-38.9c-0.2-4.7-1.1-9.5-2.7-13.8
		c-2-5.5-0.7-11.2,1.9-14.8c7-9.6,21.9-13.2,30.4,0.3c3.6,5.8-0.4,10.1-1.8,15c-1,3.7-2.7,7.4-3,11.2c-1,12.2-1.2,24.4-2.2,36.6
		c-0.5,6-2.3,11.9-3.4,17.8c-0.3,1.9-0.3,3.9-0.5,5.9c2.9-0.3,5.3-0.6,7.9-0.8c0,1.5,0.1,1.7,0,1.8c-11.7,9.1-9.1,22.3-9.9,34.5
		c-1.2,18.1-2.7,36.2-3.9,54.3c-0.3,5.1-0.1,10.2-0.1,15.2c-0.7,0-1.4,0-2,0.1c-1.9-26.9-3.7-53.8-5.6-81.4
		c-0.9,0.8-1.8,1.4-2.6,2.1c-6,5.7-12,11.4-18.1,17.1c-2.3,2.2-4,0.8-6-0.8c-4.4-3.7-9.1-7.1-13.7-10.5c-0.5-0.4-1.5-0.2-2.4-0.3
		c-2.6,25.3-0.1,50.7-6.6,75.6c-0.9-5.5-2.3-11.1-2.6-16.6c-0.4-8.6,0-17.3-0.1-26c-0.2-12.1-0.6-24.2-1-36.3
		c-0.2-8.7-0.6-17.4-10.7-21.3c-1.3-0.5-2.5-1.7-3.4-2.8c-0.6-0.7-0.7-1.9-1.5-4.7c5.8,1.9,10.3,3.4,15.9,5.2
		c-0.5-6.9-0.7-13.4-1.6-19.8c-1.1-8.4-2.7-16.4-1-25.2c1.8-9.5-1.9-18.9-5.4-27.7c-5.3-13.3,0.3-25.7,15.2-27.4
		c7-0.8,11.4,3.8,15.3,8.6c3.8,4.6,1.8,9.9-0.7,13.8c-4.9,7.7-4.2,16-4.4,24.4c-0.3,8.3-0.6,16.6-1.5,24.9
		c-1.2,11.1-3.1,22.1-4.3,33.2c-0.2,1.6,1.2,4,2.6,5.1c3.8,3.1,8.1,5.6,12.1,8.4c2.7,1.9,5.3,1.9,8.3,0.3
		C163.2,155.8,169.6,152.8,176.6,149.3z"/>
	<path d="M262.4,85.5c-1.7,2.3-3.7,4.5-5.2,7c-5.5,9.5-10.2,19.5-16.6,28.3c-3.5,4.8-9.8,7.8-15.2,10.9c-3.5,2-6.4-1.1-7.6-3.7
		c-1.8-4.1-3.3-8.7-3.5-13.1c-0.3-8.9,0.6-17.9,0.8-26.8c0.1-3.3-1-6.6-0.8-9.8c0.4-6.7,0.9-13.5,2-20.1c1.5-8.7-1.7-16-5.5-23.4
		c5-6.5,8.7-7.9,16.5-5.3c5.3,1.8,10.5,1.4,15.2-1.3c3.7-2.1,6.8-1.6,10.7-0.3c4.9,1.6,10.5,3.1,15.3,2.2c6.3-1.3,8.4,2.3,9.9,6.2
		c1.9,4.8,2.4,10.1,3.3,15.3c0.8,4.9-1.8,8.5-5.9,10.4c-3.1,1.5-2.6,1.8-0.5,4c1.4,1.4,2.2,4.6,1.6,6.4
		c-4.4,13.5-8.8,27.1-14.1,40.3c-6.2,15.6-9.9,31.8-12.3,48.4c-0.8,5.4-3.4,10.6-5.1,15.9c-0.4,1.2-0.6,2.5-1.2,4.6
		c11.1,0,21.6,0,33,0c-0.4-4.4-0.9-9.3-1.2-14.2c-0.4-6.8-1-13.5-0.8-20.3c0.1-2,2.7-3.9,4.1-5.9c0.5,0.1,1,0.2,1.5,0.4
		c0.6,2.3,1.6,4.5,1.7,6.8c0.5,13.4,0.8,26.9,1,40.3c0.1,7-3.6,9.8-10.2,7.8c-12.4-3.8-24.9-4.3-37.5-1.4c-2.7,0.6-5.6,1.3-8.3,0.9
		c-3-0.4-6-0.2-7.1-5.4c-1.9-9.3,1.3-16.8,5.9-23.7c11.8-17.5,21.6-36,29.5-55.5c3.2-8,5.6-16.3,8.4-24.4
		C263.8,86.4,263.1,86,262.4,85.5z M236.7,103.4c2.5-1.6,4-2.2,4.9-3.3c3.5-4,7.1-7.8,10-12.2c5.1-7.7,10.5-15,18.7-19.7
		c0.9-0.5,1.4-1.8,2.7-3.5c-2,0-2.9-0.1-3.8,0c-5.1,0.5-10.3,2.1-15.1,1.3c-6.4-1.1-11.9,0.3-17.3,1.7
		C236.7,79.4,236.7,90.7,236.7,103.4z"/>
	<path d="M694.6,132.4c-0.6-6.3-0.6-10.9-1.5-15.4c-1.5-6.7,1.1-12.8,2.1-19.2c1.5-10.2,2.4-20-4.8-29.6c-4.7-6.3-8-14.9-5.2-24.1
		c2.1-6.9,9.7-11.9,19.1-11.7c6.1,0.1,13.9,6.3,14.3,12.3c0.2,3.1-1,6.5-2.4,9.4c-4.1,8.4-4.4,17-3.9,26.3
		c0.5,9.7-2.1,19.5-3.3,29.3c-1.1,9.3-2.2,18.6-3.2,27.9c-0.1,0.8-0.1,2,0.4,2.4c4.3,3.2,8.9,6.2,13.2,9.5c5.3,4,9.9,1.5,14.7-1
		c3.8-2,7.7-3.7,11.3-5.9c1.3-0.8,2.6-2.7,2.6-4.1c0.6-13.6-0.6-26.9-3.1-40.4c-1.9-10-1.1-20.6-2-30.8c-0.3-3.3-1.5-6.7-2.8-9.8
		c-3.6-8.7,0.6-19.6,8.6-23c13.3-5.5,21,1,24.2,9.7c0.9,2.5-0.4,6.5-1.9,9.1c-3.8,6.8-3.8,14.1-4.4,21.5
		c-1.2,13.2,0.5,26.7-4.3,39.7c-1.5,4.1-1.1,9-1.7,14c1.6-0.4,2.5-0.7,3.5-0.8c1.4-0.1,2.8-0.2,4.2-0.2c-0.4,1.3-0.4,3.1-1.3,3.7
		c-7,4.7-7.4,11.5-7.5,19.2c-0.2,11.5-1.9,23-2.7,34.5c-0.3,4.9,0.1,9.7-0.1,14.6c-0.4,10.7-1,21.4-2.1,32.2
		c-0.5-4.6-1.1-9.2-1.6-13.9c-0.3-3.1-0.4-6.2-0.8-9.3c-1.4-10.9-4.1-21.6-3.4-32.8c0.5-7.7-0.5-15.5-0.9-25.1
		c-3.3,2.9-5.7,4.8-7.9,6.9c-4.4,4.2-8.6,8.6-13,12.8c-1.7,1.6-3.3,2-5.5,0.1c-3.8-3.4-8-6.3-12.1-9.3c-1.1-0.8-2.3-1.6-4.9-3.4
		c-0.6,12.9-1,24.4-1.8,35.8c-0.8,11.3-2,22.6-3.1,34.8c-0.9-9.4-0.7-18.1-2.8-26.3c-3-11.6-1-23.1-1.8-34.6
		c-0.5-7.3-0.3-14.6-1.2-21.8c-0.3-2.6-2.5-5.3-4.5-7.2c-2.5-2.5-5.9-4.2-8.7-6.4c-0.8-0.6-0.9-2.1-1.3-3.2c1.1-0.3,2.4-1,3.4-0.7
		C686.4,129.1,689.8,130.6,694.6,132.4z"/>
	<path d="M521.5,88.1c1.3,12.8-0.2,24.8-3.8,36.7c-1.3,4.3-1.7,9-1.8,13.6c-0.2,15.6,0.1,31.3-0.2,46.9c-0.1,5.6-2.2,10.3-8.2,13.3
		c-5,2.5-9,7.1-13.4,10.8c-4,3.5-8,7-11.7,10.7c-2.3,2.3-4.3,2.4-7.1,1.1c-5.6-2.5-11.4-4.9-17.1-7.1c-3.2-1.2-4.6-3.8-4.8-6.6
		c-0.4-6.9-0.1-13.7-0.3-20.6c-0.2-9.9-1.3-19.9-0.8-29.8c0.7-14.4-0.4-28.5-3-42.6c-0.3-1.5,0.3-3.2,0.8-4.8c2.6-8.9-1-17-2.8-25.5
		c-1.5-6.8-2.3-14.1-1.6-21c0.3-2.8,5-5.7,8.2-7.6c3.6-2.1,7.8-3.7,11.9-4.3c3.1-0.5,6.5,0.8,9.8,1.4c5,0.8,7.4,3.6,8.4,8.9
		c1,5.4,3,10.7,5.4,15.7c5.4,11,18.1,15.8,29.6,11.7C519.8,88.7,520.6,88.5,521.5,88.1z M464,187.4c-0.4,0.1-0.7,0.2-1.1,0.3
		c1.3,4,2.1,8.2,3.9,11.9c3.1,6.2,15.6,9.4,20.4,4.8c6.2-5.9,11.7-12.6,17.3-19.1c0.9-1,1.5-2.6,1.5-4c0.2-5.2,0.1-10.5,0-15.7
		c-0.3-10.4-0.6-20.7-1-31.1c-0.1-2.3-0.6-4.5-0.7-6.8c-0.2-4.2,0.2-8.5-0.4-12.7c-0.6-4.1-6.9-7.2-11.1-6.4
		c-3.7,0.7-7.9,2.2-11.2,1.2c-5.7-1.9-8.7,1-11.3,4.6c-1.5,2.1-2.2,5.2-2.4,7.8C466.6,144.1,465.3,165.7,464,187.4z"/>
	<path d="M899.5,236.6c-1.1-10.4-1.3-20.9-3.6-31c-3.5-15.2-0.9-30,0.1-45c0.1-2-0.1-4.8-1.4-6.1c-7.5-7.9-14.9-16-23.1-23.1
		c-6.3-5.4-13.1-2.4-17.8,4.4c-5.6,8-3.4,16.9-4.6,25.3c-1.3,8.6-0.8,17.5-1.3,26.3c-0.1,1.9-1.2,3.8-1.9,6.1
		c-4.4-2.6-5.8-5.6-5.8-9.8c-0.2-23.8-0.5-47.6-1-71.3c-0.1-3.7-1.4-7.4-1.8-11.1c-0.7-5.5,0.1-11,0.4-16.4
		c0.4-7.9-2.1-16.1-4.4-23.9c-1.6-5.6-4-10.9-2-16.6c0.9-2.5,2.5-5,4.4-6.9c7.9-7.8,21.1-6,25.9,3.9c1.4,3,0.8,8-0.7,11.1
		c-3.3,6.6-4.5,13.4-4,20.6c0.8,13.1-0.8,26-4.2,38.7c-0.8,3.1-1.1,6.4-2,11.5c2.2-1.4,3.9-1.9,4.5-3c5.7-10,11.3-20.1,16.6-30.2
		c2.1-4,3.4-8.5,5.4-12.6c2.4-4.9,5.7-9.5,7.8-14.6c2.2-5.5,4.3-11.4,5-17.2c0.6-5.6,3-9.9,6.4-13.9c3.3-3.8,7.5-2.3,11-0.9
		c4.5,1.7,8,4.7,9.7,9.7c1.6,4.5,0.7,8.2-2.4,11.3c-7,6.9-13.8,13.8-18.2,22.9c-2,4.2-5.6,7.8-8.9,11.2c-5.3,5.6-8.3,11.8-8.8,19.6
		c-0.2,3.8-2.2,7.5-2.9,11.3c-0.3,1.5,0.2,3.7,1.3,4.7c7,6.5,13.9,13.3,21.5,19c6.9,5.2,8.2,12.1,8.1,19.5
		c-0.3,17.7-0.8,35.5-2.1,53.1C904,221,901.3,228.7,899.5,236.6z"/>
	<path d="M632.9,104.3c-0.7,7.8-1.3,15.3-2.1,22.8c-1.2,11.9-2.6,23.9-3.8,35.8c-0.5,5.4-0.9,10.9-1.2,16.3
		c-0.7,11.7-1.3,23.4-2.1,35.2c-0.3,4,0.7,6.6,5,7.7c3.8,0.9,7.3,2.8,11.1,3.8c1.3,0.3,3.5-0.4,4.5-1.5c7.1-7.4,13.8-15.2,20.9-22.6
		c3.4-3.5,3.8-7,3.4-11.6c-1-11.2-1.4-22.5-1.4-33.7c0-1.8,4.3-5.5,5.1-5.2c2.8,1.3,6.9,4,7,6.3c0.6,15.2,0.3,30.5,0.2,45.7
		c0,0.9-0.4,2-1.1,2.6c-5.4,5.2-10.8,10.3-16.3,15.3c-4.7,4.3-9.8,8.1-14.4,12.5c-3.8,3.7-7.2,4.3-11.9,1.6
		c-3.9-2.2-8.3-3.7-12.6-5.1c-4.5-1.5-7.3-4.1-7.4-9.1c-0.3-21.9-0.4-43.9-1.1-65.8c-0.2-7.9-1.9-15.6-2.5-23.5
		c-0.3-3.5-0.2-7.3,0.9-10.7c2-6.4-0.5-12-1.8-17.8c-1.1-4.6-2.9-9-4.4-13.5c-2.3-6.9-1.5-13.5,3.8-18.5c5.6-5.2,12.1-6.5,19.9-4
		c10.5,3.3,20.9,7.1,32.5,5.7c3.6-0.4,8.2,3.7,11.8,6.4c7.5,5.6,7.8,15.1,1,21.9c-0.9,0.9-2.1,1.7-3.3,1.8
		c-10.3,0.8-20.5,1.5-30.8,2.1C639.3,105.3,636.4,104.6,632.9,104.3z"/>
	<path d="M90.9,139c4.3,11.7-3.2,19-6.1,27.6c-1.5,4.4-3.5,8.9-3.8,13.4c-1.1,16.9-1.5,33.8-2.2,50.6c-0.2,4.6-0.9,9.2-1.3,12.8
		c-0.4-5.8-1-12.5-1.3-19.2c-0.5-11.3-0.7-22.5-1.1-33.8c-0.2-5.1-0.6-10.2-1-15.3c-0.1-1.1-0.8-2.4-1.6-3.1
		c-4.8-3.9-9.7-7.9-14.8-11.5c-1.6-1.1-3.9-1.2-6.4-1.9c-0.7,4.4-1.3,8-1.6,10.4c-0.7-5-2.3-11.3-2.2-17.6c0.1-4.6,2.3-9.1,3.6-13.7
		c2.6-8.9,5.7-17.8,7.6-26.9c0.9-4.5-0.2-9.5-0.6-14.2c-0.9-9.2-1.7-18.4-3-27.5c-0.7-4.4-3.1-8.6-3.7-13c-1-7.3-1.2-14.8-1.8-22.5
		c-5.1-2.7-10.1-1.7-15,1.4c-4.4,2.9-8.7,5.9-13,8.9c-2.3,1.6-9.2,0.3-10.9-2.7C4.9,30.7,1.5,19.8,7.8,8.1c3.5-6.5,5.6-7.3,11.5-2.8
		C25.1,9.8,31.7,9,37.9,8.2c8.1-1.1,15.8-1.9,23.5,1.4c1.6,0.7,3.5,0.9,5.3,0.9c15.3,0.1,30.6,0.1,46,0c2.4,0,4.9-0.7,7.3-0.9
		c2.6-0.2,5.9-0.8,6.2,3c0.2,3.3-1.5,6-5.1,6.7c-7.6,1.4-15.1,2.8-22.7,4c-5.5,0.9-11.2,1.1-16.6,2.2c-1.9,0.4-4.3,2.5-4.9,4.4
		c-3,9.7-6,19.4-7.8,29.2c-1.3,7.1-0.9,14.5-1.2,21.8c-0.4,10.1,0.1,20.3-1.2,30.3c-1,7.9-4.2,15.4-6.2,23.2c-1.3,5-2.4,10.2-3.7,16
		c2.7,0.5,5.3,0.6,7.7,1.3c4.5,1.3,9.3,2.3,13.4,4.6c3.3,1.9,4.2,1,5.5-1.7C85.5,149.6,88,144.9,90.9,139z"/>
	<path d="M506.1,28.4c3.6,2.1,7,5.2,10.7,5.8c6,0.9,12.4,0.8,18.5-0.1c6.1-0.9,11.5-0.3,17.4,1.4c5.2,1.5,11,1.1,16.5,1.4
		c1.8,0.1,3.6-0.3,5.4-0.4c12.9-0.3,25.8-0.8,38.8-0.8c1.8,0,3.6,1.8,5.3,2.7c-1.3,2.3-2.1,5.5-4.1,6.6c-2.7,1.5-6.2,1.5-9.5,2
		c-11.2,1.8-22.3,3.6-34.3,5.6c-1,5.6-1.9,11.5-3.2,17.4c-0.7,3.2-1.9,6.3-3.4,9.2c-3.2,6.1-4.6,12.5-4.6,19.4
		c0,13.3,0,26.6-1.1,39.8c-0.6,6.7-3.6,13.2-5.2,19.9c-1.5,6.1-2.8,12.3-3.9,17.4c8,2.8,14.8,5.3,21.8,7.4c1.2,0.4,4.1-0.9,4.4-2
		c2.9-10.1,10.5-16.9,17-24.6c2.1-2.5,4.2-4.9,6.5-7.6c2.2,4.5-0.9,6.5-3,8.8c-8.7,9.4-12,21.7-18,32.6c-4.8,8.6-5.3,17.7-6.2,27
		c-0.4,3.6-0.7,7.1-1.5,10.7c-1.1-8.3-2.4-16.5-3.1-24.8c-0.5-5.8-5.4-7.1-8.9-9.6c-4.9-3.7-10.6-6.2-15.8-9.6
		c-4.2-2.8-2.7-7-1.7-10.8c2.7-9.9,4.9-20.1,8.5-29.7c3.2-8.7,0.7-17,0.5-25.4c-0.1-4.4-1.7-8.8-1.5-13.2c0.4-8.5-2.8-16.1-4.7-24
		c-1.2-4.6-0.7-9.7-0.5-14.5c0.3-6.6-3.3-9.9-10-7.4c-6.1,2.3-11.7,6.3-17.2,10c-3.3,2.2-9.8,2.3-12.3-0.8
		C496.5,58.9,492.7,37.4,506.1,28.4z"/>
	<path d="M801.8,263.5c-1.2-9.3-2.9-18.6-3.5-27.9c-0.6-8.4,0.2-17-0.3-25.5c-0.4-7.8-1.9-15.6-2.5-23.4c-0.2-3.1,1-6.3,1.1-9.5
		c0.1-2.5,0-5.3-0.9-7.6c-1.5-3.9-3.7-7.6-5.6-11.4c-0.9-1.9-3.1-4.1-2.7-5.5c0.9-3.2,2.5-6.9,5.1-8.6c6.4-4.4,13.8-6.2,21.5-3.4
		c7.2,2.6,8.6,9.2,4.6,15.7c-2.3,3.8-3,8.8-3.7,13.4c-1.1,7.2-1.2,14.5-2.3,21.7c-0.9,6.4-2.9,12.7-3.7,19.2
		c-1.3,10.4-2.2,20.9-3,31.4c-0.6,7.2-0.9,14.4-1.4,21.7C803.6,263.6,802.7,263.5,801.8,263.5z"/>
	<path d="M818.2,91.9c-0.4,10.9-7.5,21.1-17.8,25.1c-2.9,1.1-10.2-1.2-12-4.1c-7.1-11.3-9.9-23.3-5.1-36.2c2.4-6.5,6.8-12,13.7-14
		c6.9-1.9,15.4,3.8,17.8,10.9c1,2.9,1.6,6,2.2,9C817.5,85.7,817.8,88.8,818.2,91.9z"/>
</g>
</svg>
